#tb 0: 1/25
0,          0,          0,        1,   152064, 0x9f9caf3c
0,          1,          1,        1,   152064, 0x68f285b1
0,          2,          2,        1,   152064, 0x28bd4987
0,          3,          3,        1,   152064, 0x79de6e48
0,          4,          4,        1,   152064, 0x48301bf9
0,          5,          5,        1,   152064, 0x2c9e516c
0,          6,          6,        1,   152064, 0xf774946a
0,          7,          7,        1,   152064, 0x36534317
0,          8,          8,        1,   152064, 0x98b7bd86
0,          9,          9,        1,   152064, 0x2aa3d50b
0,         10,         10,        1,   152064, 0xc4343429
0,         11,         11,        1,   152064, 0x276c5f04
0,         12,         12,        1,   152064, 0x042d2916
0,         13,         13,        1,   152064, 0x777ee739
0,         14,         14,        1,   152064, 0x1ce186d8
0,         15,         15,        1,   152064, 0x0ae5a447
0,         16,         16,        1,   152064, 0x179435a8
0,         17,         17,        1,   152064, 0x96d743b8
0,         18,         18,        1,   152064, 0x7dcc26b7
0,         19,         19,        1,   152064, 0x72c860c8
0,         20,         20,        1,   152064, 0x12a95052
0,         21,         21,        1,   152064, 0x1ed00304
0,         22,         22,        1,   152064, 0xf9f698be
0,         23,         23,        1,   152064, 0x768ef04d
0,         24,         24,        1,   152064, 0x873833ee
0,         25,         25,        1,   152064, 0x1b4a1e1e
0,         26,         26,        1,   152064, 0x67462224
0,         27,         27,        1,   152064, 0x0206612a
0,         28,         28,        1,   152064, 0xd203f197
0,         29,         29,        1,   152064, 0x5dc020b0
0,         30,         30,        1,   152064, 0xdaf2ba1c
0,         31,         31,        1,   152064, 0xad54e4b2
0,         32,         32,        1,   152064, 0x4273c281
0,         33,         33,        1,   152064, 0x0655817d
0,         34,         34,        1,   152064, 0xdea79e1c
0,         35,         35,        1,   152064, 0x60ae6d1e
0,         36,         36,        1,   152064, 0x45401d1b
0,         37,         37,        1,   152064, 0xc6b12160
0,         38,         38,        1,   152064, 0x163fbde9
0,         39,         39,        1,   152064, 0x91636a0c
0,         40,         40,        1,   152064, 0x442173a4
0,         41,         41,        1,   152064, 0x0f941379
0,         42,         42,        1,   152064, 0x0649caad
0,         43,         43,        1,   152064, 0x1238eaa4
0,         44,         44,        1,   152064, 0x86013d55
0,         45,         45,        1,   152064, 0xec33b550
0,         46,         46,        1,   152064, 0x4cc7b33d
0,         47,         47,        1,   152064, 0x4c93f8ab
0,         48,         48,        1,   152064, 0x0cf15a34
0,         49,         49,        1,   152064, 0x04b71770
0,         50,         50,        1,   152064, 0xf860cea8
0,         51,         51,        1,   152064, 0x77fb76a3
0,         52,         52,        1,   152064, 0xa494b27c
0,         53,         53,        1,   152064, 0xf7a0b0b2
0,         54,         54,        1,   152064, 0x4cae843b
0,         55,         55,        1,   152064, 0x590e6403
0,         56,         56,        1,   152064, 0xe439e63e
0,         57,         57,        1,   152064, 0xbeca5f92
0,         58,         58,        1,   152064, 0x31d9164f
0,         59,         59,        1,   152064, 0xedab54a9
0,         60,         60,        1,   152064, 0xd8e1de00
0,         61,         61,        1,   152064, 0xd04fe391
0,         62,         62,        1,   152064, 0xef6568b3
0,         63,         63,        1,   152064, 0x859a2811
0,         64,         64,        1,   152064, 0x9d5ffe6f
0,         65,         65,        1,   152064, 0x5a679908
0,         66,         66,        1,   152064, 0xc264a830
0,         67,         67,        1,   152064, 0xbfdf08c0
0,         68,         68,        1,   152064, 0x4fd68cb7
0,         69,         69,        1,   152064, 0x0a7b86f3
0,         70,         70,        1,   152064, 0xe4fe043b
0,         71,         71,        1,   152064, 0x8b186a22
0,         72,         72,        1,   152064, 0xf715765a
0,         73,         73,        1,   152064, 0xfd7b77e5
0,         74,         74,        1,   152064, 0x9e3fdd06
0,         75,         75,        1,   152064, 0xc8bac3fa
0,         76,         76,        1,   152064, 0x4e83449f
0,         77,         77,        1,   152064, 0xe5fefcff
0,         78,         78,        1,   152064, 0x89d77b09
0,         79,         79,        1,   152064, 0x77fd6f7e
0,         80,         80,        1,   152064, 0xa7ec356c
0,         81,         81,        1,   152064, 0x2000aa87
0,         82,         82,        1,   152064, 0xa9a1e267
0,         83,         83,        1,   152064, 0xf67c3fcc
0,         84,         84,        1,   152064, 0x10143acc
0,         85,         85,        1,   152064, 0xa5fa0476
0,         86,         86,        1,   152064, 0x2e8d8966
0,         87,         87,        1,   152064, 0x74ccbbde
0,         88,         88,        1,   152064, 0xf903b2cf
0,         89,         89,        1,   152064, 0x66a8d7ab
0,         90,         90,        1,   152064, 0x123e23e2
0,         91,         91,        1,   152064, 0x8bd70865
0,         92,         92,        1,   152064, 0x2b017249
0,         93,         93,        1,   152064, 0x17f1aba6
0,         94,         94,        1,   152064, 0x38368449
0,         95,         95,        1,   152064, 0x72ee1b69
0,         96,         96,        1,   152064, 0x0f1c6a1d
0,         97,         97,        1,   152064, 0xbeea0040
0,         98,         98,        1,   152064, 0x4a9e73b9
0,         99,         99,        1,   152064, 0x51a46120
